#!OML:ASF X:\für Bonn\!DataBase\2005_08_10_Bjorn_Final\c3d\bjorn.ASF
:FULLY-SPECIFIED
:DEGREES
61
root 2.45468 18.4035 0.777052 -209.454 0.817518 172.792
lowerback 19.629 -1.04738 -0.989625
upperback 18.7169 4.31032 -2.41662
thorax 10.0816 4.6762 -2.12425
lowerneck -1.25111 1.43876 3.16936
upperneck 7.10205 2.00816 -6.06378
head 2.60379 0.828012 -2.47972
rclavicle 1.73937e-014 -2.78299e-015
rhumerus -2.70449 6.71452 -72.2678
rradius 45.5119
rwrist 1.02699
rhand -12.4596 16.8014
rfingers 7.12502
rthumb 13.614 -12.7334
lclavicle 1.73937e-014 -2.78299e-015
lhumerus -26.5508 -46.9198 66.521
lradius 63.2141
lwrist 12.3542
lhand -49.0783 -18.2103
lfingers 7.12502
lthumb -21.7042 10.593
rfemur 18.7654 2.90059 13.064
rtibia 34.5504
rfoot -18.3947 20.3921
rtoes -5.35627
lfemur -89.3337 19.3676 -28.6581
ltibia 95.7097
lfoot -13.5819 -1.38876
ltoes -22.7212
62
root 2.46311 18.3841 0.72344 -210.352 1.42794 172.94
lowerback 19.3811 -1.13836 -0.652244
upperback 18.8687 4.24065 -2.40283
thorax 10.4114 4.68726 -2.25795
lowerneck -0.264268 1.71974 3.17876
upperneck 6.89031 2.37973 -6.22242
head 2.3758 1.01727 -2.52386
rclavicle -7.65321e-015 -3.57812e-015
rhumerus -2.06037 7.51707 -72.0057
rradius 47.2647
rwrist 0.493536
rhand -12.2601 16.9625
rfingers 7.12502
rthumb 13.8063 -12.5593
lclavicle -7.65321e-015 -3.57812e-015
lhumerus -27.1982 -45.7976 65.7809
lradius 64.4308
lwrist 13.1564
lhand -49.8209 -17.8971
lfingers 7.12502
lthumb -22.4172 10.8221
rfemur 19.9782 3.43153 13.7532
rtibia 34.2504
rfoot -18.3469 20.2575
rtoes -4.3721
lfemur -87.931 20.0473 -28.7095
ltibia 88.6585
lfoot -13.2206 -0.822825
ltoes -19.7654
63
root 2.47086 18.3607 0.664079 -211.269 2.0346 173.11
lowerback 19.1058 -1.22824 -0.183435
upperback 18.9593 4.1568 -2.43743
thorax 10.6894 4.70076 -2.52194
lowerneck 0.819809 1.97575 3.32495
upperneck 6.88455 2.71281 -6.41865
head 2.20353 1.18456 -2.61347
rclavicle 1.12313e-014 -3.18055e-015
rhumerus -1.81366 8.16171 -71.929
rradius 49.3415
rwrist -0.0569705
rhand -11.9251 16.9113
rfingers 7.12502
rthumb 14.1292 -12.5883
lclavicle 1.12313e-014 -3.18055e-015
lhumerus -28.1599 -44.7938 65.2185
lradius 65.513
lwrist 14.1801
lhand -50.5246 -18.167
lfingers 7.12502
lthumb -23.0925 10.4692
rfemur 21.342 3.87378 14.4156
rtibia 33.7536
rfoot -18.2068 20.1769
rtoes -3.54147
lfemur -86.0157 20.8192 -28.7051
ltibia 81.1039
lfoot -12.4092 -0.543722
ltoes -17.5846
64
root 2.47903 18.3477 0.606286 -212.147 2.64959 173.302
lowerback 18.674 -1.30883 0.35237
upperback 19.0485 4.07417 -2.46467
thorax 11.0528 4.71689 -2.80582
lowerneck 1.89751 2.21423 3.56331
upperneck 7.02075 3.02227 -6.68719
head 2.08494 1.33537 -2.75051
rclavicle 1.68967e-015 1.66979e-014
rhumerus -1.76698 8.68883 -71.9391
rradius 51.6065
rwrist -0.669867
rhand -11.3951 16.6813
rfingers 7.12502
rthumb 14.6398 -12.7819
lclavicle 1.68967e-015 1.66979e-014
lhumerus -29.3266 -43.7701 64.8651
lradius 66.4482
lwrist 15.1916
lhand -51.1562 -18.5319
lfingers 7.12502
lthumb -23.6984 10.0271
rfemur 22.7178 4.19513 15.0301
rtibia 33.1492
rfoot -17.9994 20.1937
rtoes -2.82104
lfemur -83.8448 21.7047 -28.6206
ltibia 73.2189
lfoot -10.6578 -0.465119
ltoes -17.8239
65
root 2.4861 18.3424 0.550753 -213.001 3.30155 173.49
lowerback 18.1602 -1.34649 0.850919
upperback 19.0963 3.99334 -2.40042
thorax 11.3978 4.70487 -2.96943
lowerneck 3.20217 2.44253 3.6817
upperneck 7.11057 3.30922 -6.98606
head 1.91033 1.47116 -2.88145
rclavicle 1.19271e-015 3.57812e-015
rhumerus -1.92256 9.32473 -71.8581
rradius 53.978
rwrist -1.50046
rhand -10.903 16.4875
rfingers 7.12502
rthumb 15.1139 -12.9407
lclavicle 1.19271e-015 3.57812e-015
lhumerus -30.884 -42.704 64.983
lradius 67.2149
lwrist 16.0406
lhand -51.6227 -18.7369
lfingers 7.12502
lthumb -24.1458 9.76345
rfemur 24.0465 4.40382 15.5456
rtibia 32.5401
rfoot -17.7618 20.3284
rtoes -2.49285
lfemur -81.4974 22.6339 -28.3401
ltibia 65.1822
lfoot -7.6715 -0.344104
ltoes -19.8857
66
root 2.49193 18.3293 0.48883 -213.794 4.01239 173.698
lowerback 17.5785 -1.3309 1.33524
upperback 19.0745 3.91626 -2.23183
thorax 11.6813 4.66041 -3.01541
lowerneck 4.70571 2.67807 3.70106
upperneck 7.19198 3.5893 -7.29998
head 1.69891 1.59905 -3.00635
rclavicle -2.84262e-014 1.78906e-014
rhumerus -2.24488 10.073 -71.6782
rradius 56.2992
rwrist -2.57724
rhand -10.5441 16.5479
rfingers 7.12502
rthumb 15.4597 -12.8539
lclavicle -2.84262e-014 1.78906e-014
lhumerus -32.9374 -41.5772 65.5855
lradius 67.9366
lwrist 16.6533
lhand -52.0072 -18.8714
lfingers 7.12502
lthumb -24.5144 9.57955
rfemur 25.2911 4.52992 15.993
rtibia 31.9687
rfoot -17.4834 20.652
rtoes -2.15717
lfemur -78.9497 23.5186 -27.7543
ltibia 57.1292
lfoot -4.10654 -0.311262
ltoes -20.7078
67
root 2.4946 18.3048 0.418164 -214.525 4.75646 173.883
lowerback 16.8826 -1.30344 1.84905
upperback 19.0337 3.83061 -2.05994
thorax 12.0078 4.60735 -3.0695
lowerneck 6.32644 2.91882 3.69906
upperneck 7.11878 3.86303 -7.61459
head 1.41934 1.72897 -3.13511
rclavicle 4.67144e-015 2.78299e-015
rhumerus -2.52856 10.8092 -71.5141
rradius 58.4411
rwrist -3.72964
rhand -10.0965 16.6677
rfingers 7.12502
rthumb 15.8907 -12.7003
lclavicle 4.67144e-015 2.78299e-015
lhumerus -35.3138 -40.3045 66.4229
lradius 68.7205
lwrist 17.0696
lhand -52.4864 -19.1933
lfingers 7.12502
lthumb -24.9736 9.19457
rfemur 26.4246 4.57106 16.2965
rtibia 31.5024
rfoot -17.2027 21.2009
rtoes -1.85863
lfemur -76.1562 24.3944 -26.978
ltibia 49.184
lfoot -0.241804 -0.626807
ltoes -21.115
68
root 2.49632 18.2806 0.346738 -215.198 5.52323 174.073
lowerback 16.0875 -1.27029 2.38159
upperback 18.9965 3.7348 -1.84849
thorax 12.3962 4.546 -3.0844
lowerneck 7.94937 3.17931 3.6092
upperneck 7.00632 4.14314 -7.90434
head 1.12773 1.86112 -3.24684
rclavicle -5.06901e-015 1.59028e-015
rhumerus -2.88519 11.509 -71.3019
rradius 60.6522
rwrist -4.89121
rhand -9.35728 16.5008
rfingers 7.12502
rthumb 16.6025 -12.8091
lclavicle -5.06901e-015 1.59028e-015
lhumerus -37.8713 -38.9593 67.463
lradius 69.5534
lwrist 17.3461
lhand -53.0339 -19.4376
lfingers 7.12502
lthumb -25.4982 8.87638
rfemur 27.4026 4.53846 16.5176
rtibia 31.1993
rfoot -16.9115 21.9019
rtoes -1.32657
lfemur -73.3613 25.3005 -26.1012
ltibia 41.579
lfoot 3.41231 -0.993072
ltoes -20.8025
